<?xml version="1.0" encoding="utf-8"?>
<!-- Generator: Adobe Illustrator 15.1.0, SVG Export Plug-In . SVG Version: 6.00 Build 0)  -->
<!DOCTYPE svg PUBLIC "-//W3C//DTD SVG 1.1//EN" "http://www.w3.org/Graphics/SVG/1.1/DTD/svg11.dtd">
<svg version="1.1" id="Layer_1" xmlns="http://www.w3.org/2000/svg" xmlns:xlink="http://www.w3.org/1999/xlink" x="0px" y="0px"
	 width="36px" height="34px" viewBox="0 0 36 34" enable-background="new 0 0 36 34" xml:space="preserve">
<g>
	<path d="M20.104,18.375c0.234,0.188,0.344,0.488,0.285,0.785l-0.801,4c-0.074,0.379-0.41,0.641-0.781,0.641
		c-0.055,0-0.106-0.004-0.161-0.016c-0.433-0.086-0.711-0.508-0.625-0.941l0.692-3.469l-3.988-2.215
		c-0.879-0.559-0.961-1.918-0.079-2.559c0.957-0.723,1.758-1.281,2.399-1.762c0.879-0.641,1.519-1.039,2.16-1.039h0.398
		c0.208,0,0.411,0.078,0.567,0.234L23.136,15h2.871c0.441,0,0.801,0.36,0.801,0.801s-0.359,0.801-0.801,0.801h-3.199
		c-0.215,0-0.418-0.086-0.566-0.235l-0.508-0.507l-1.488-1.258l-2.559,1.679l2.247,1.954L20.104,18.375z M21.604,11.801
		c1.105,0,2-0.895,2-2s-0.895-2-2-2c-1.102,0-2,0.895-2,2S20.503,11.801,21.604,11.801L21.604,11.801z M28.405,22.602
		c0,2-1.598,3.598-3.598,3.598s-3.602-1.598-3.602-3.598S22.808,19,24.808,19S28.405,20.602,28.405,22.602L28.405,22.602z
		 M27.206,22.602c0-1.359-1.039-2.402-2.398-2.402c-1.363,0-2.402,1.043-2.402,2.402S23.444,25,24.808,25
		C26.167,25,27.206,23.961,27.206,22.602L27.206,22.602z M16.405,22.602c0,2-1.597,3.598-3.597,3.598s-3.602-1.598-3.602-3.598
		S10.808,19,12.808,19S16.405,20.602,16.405,22.602L16.405,22.602z M15.206,22.602c0-1.359-1.039-2.402-2.398-2.402
		c-1.364,0-2.403,1.043-2.403,2.402S11.444,25,12.808,25C14.167,25,15.206,23.961,15.206,22.602L15.206,22.602z M15.206,22.602"/>
</g>
</svg>
