<?xml version="1.0" encoding="utf-8"?>
<!-- Generator: Adobe Illustrator 15.1.0, SVG Export Plug-In . SVG Version: 6.00 Build 0)  -->
<!DOCTYPE svg PUBLIC "-//W3C//DTD SVG 1.1//EN" "http://www.w3.org/Graphics/SVG/1.1/DTD/svg11.dtd">
<svg version="1.1" id="Layer_1" xmlns="http://www.w3.org/2000/svg" xmlns:xlink="http://www.w3.org/1999/xlink" x="0px" y="0px"
	 width="45px" height="52px" viewBox="0 0 45 52" enable-background="new 0 0 45 52" xml:space="preserve">
<g>
	<g>
		<path fill="#C63139" d="M37.162,16.387c-0.297-2.899-0.771-5.16-1.521-6.047c-3.08-3.652-24.687-3.918-27.136,0
			c-0.602,0.961-1.024,3.211-1.305,6.055c-0.909,0.105-1.62,0.871-1.62,1.812v3.555c0,0.789,0.5,1.457,1.199,1.715
			C6.615,29.078,6.748,34.918,6.998,37.82c0,2.242,1.504,1.871,1.504,1.871h1.414v2.422c0,0.961,0.988,1.738,2.207,1.738
			c1.223,0,2.211-0.777,2.211-1.738v-2.422H30.76v2.422c0,0.961,0.992,1.738,2.211,1.738s2.211-0.777,2.211-1.738v-2.422h0.461
			c0,0,1.773,0.242,1.887-0.812c0-2.895,0.185-9.316,0.031-15.375c0.746-0.234,1.289-0.918,1.289-1.742v-3.555
			C38.85,17.246,38.104,16.465,37.162,16.387L37.162,16.387z M13.779,10.858h16.59v2.512h-16.59V10.858z M14.018,36.832
			c-1.305,0-2.36-1.055-2.36-2.355c0-1.3,1.055-2.358,2.36-2.358c1.3,0,2.359,1.059,2.359,2.358
			C16.377,35.777,15.318,36.832,14.018,36.832L14.018,36.832z M30.279,36.832c-1.301,0-2.359-1.055-2.359-2.355
			c0-1.3,1.059-2.358,2.359-2.358c1.3,0,2.359,1.059,2.359,2.358C32.639,35.777,31.58,36.832,30.279,36.832L30.279,36.832z
			 M33.275,26.516H10.873V14.762h22.402V26.516z"/>
	</g>
</g>
</svg>
