<?xml version="1.0" encoding="utf-8"?>
<!-- Generator: Adobe Illustrator 15.1.0, SVG Export Plug-In . SVG Version: 6.00 Build 0)  -->
<!DOCTYPE svg PUBLIC "-//W3C//DTD SVG 1.1//EN" "http://www.w3.org/Graphics/SVG/1.1/DTD/svg11.dtd">
<svg version="1.1" id="Layer_1" xmlns="http://www.w3.org/2000/svg" xmlns:xlink="http://www.w3.org/1999/xlink" x="0px" y="0px"
	 width="50px" height="51px" viewBox="0 0 50 51" enable-background="new 0 0 50 51" xml:space="preserve">
<g>
	<path fill="#C63139" d="M42.385,18.933l-1.586-0.078c-0.652-0.031-1.219,0.449-1.293,1.102l-0.195,1.761
		c-0.121-0.07-0.246-0.136-0.371-0.195l-1.479-8.984c-0.19-0.832-0.938-1.426-1.793-1.426H14.338c-0.86,0-1.602,0.594-1.793,1.426
		l-1.481,8.984c-0.125,0.059-0.25,0.125-0.371,0.195l-0.195-1.761c-0.074-0.649-0.641-1.133-1.293-1.102l-1.586,0.078
		c-0.656,0.032-1.168,0.571-1.168,1.223v0.367c0,0.653,0.508,1.192,1.16,1.227l2.785,0.152c-1.078,0.719-1.773,1.816-1.773,3.051
		v5.578c0,1.387,0.879,2.604,2.199,3.309v3.75c0,1.27,1.567,2.297,3.5,2.297c1.93,0,3.5-1.027,3.5-2.297v-3.117h14.36v3.117
		c0,1.27,1.569,2.293,3.5,2.293c1.934,0,3.495-1.023,3.495-2.293v-3.75c1.324-0.703,2.203-1.918,2.203-3.309v-5.578
		c0-1.235-0.694-2.332-1.772-3.055l2.781-0.148c0.651-0.035,1.159-0.574,1.159-1.227v-0.367
		C43.553,19.504,43.037,18.965,42.385,18.933L42.385,18.933z M12.486,19.797l1.027-6.786c0.129-0.535,0.61-0.914,1.161-0.914h20.652
		c0.555,0,1.031,0.379,1.164,0.914l1.023,6.786c0.055,0.214,0.004,0.441-0.134,0.617c-0.137,0.176-0.344,0.277-0.565,0.277H13.189
		c-0.222,0-0.433-0.101-0.57-0.277C12.482,20.238,12.435,20.011,12.486,19.797L12.486,19.797z M18.428,29.449h-6.317v-3h6.317
		V29.449z M30.287,29.395H19.713v-1.276h10.574V29.395z M30.287,27.723H19.713V26.45h10.574V27.723z M37.889,29.449h-6.315v-3h6.315
		V29.449z"/>
</g>
</svg>
