<?xml version="1.0" encoding="utf-8"?>
<!-- Generator: Adobe Illustrator 15.1.0, SVG Export Plug-In . SVG Version: 6.00 Build 0)  -->
<!DOCTYPE svg PUBLIC "-//W3C//DTD SVG 1.1//EN" "http://www.w3.org/Graphics/SVG/1.1/DTD/svg11.dtd">
<svg version="1.1" id="Layer_1" xmlns="http://www.w3.org/2000/svg" xmlns:xlink="http://www.w3.org/1999/xlink" x="0px" y="0px"
	 width="141.73px" height="141.73px" viewBox="0 0 141.73 141.73" enable-background="new 0 0 141.73 141.73" xml:space="preserve">
<g>
	<g>
		<path d="M113.412,48.821h-6.917c0-17.052-16.073-30.879-35.898-30.879c-19.832,0-35.905,13.828-35.905,30.879h-6.914v13.983h6.092
			c-0.499,3.312-0.755,6.731-0.755,10.243c0,0.093,0.006,0.194,0.006,0.296c-0.095,0.333-0.178,0.67-0.229,1.016
			c-0.195,1.32-0.034,2.639,0.42,3.913c1.922,25.737,17.88,45.882,37.212,45.882c20.63,0,37.41-22.927,37.41-51.106
			c0-3.506-0.259-6.931-0.756-10.243h6.233V48.821z M70.593,100.075c0.412,0.693,0.956,1.414,1.675,2.143
			c1.029,1.067,2.453,2.11,4.148,3.027c0.854,0.459,1.774,0.878,2.756,1.252c0.982,0.363,1.992,0.688,3.051,0.93
			c0.519,0.128,1.034,0.25,1.564,0.328c0.52,0.096,1.039,0.178,1.554,0.23c1.018,0.121,2.008,0.172,2.918,0.172
			c0.907,0.006,1.732-0.061,2.448-0.133c0.721-0.084,1.331-0.196,1.821-0.291c0.107-0.03,0.207-0.057,0.308-0.077
			c-5.891,7.601-13.722,12.244-22.312,12.244l0,0c-8.606,0-16.459-4.666-22.356-12.296c0.148,0.039,0.307,0.085,0.49,0.129
			c0.488,0.095,1.098,0.207,1.817,0.291c0.717,0.072,1.548,0.139,2.454,0.133c0.907,0,1.901-0.051,2.918-0.172
			c0.513-0.053,1.029-0.135,1.545-0.23c0.538-0.078,1.047-0.2,1.567-0.328c1.058-0.242,2.073-0.566,3.057-0.93
			c0.979-0.374,1.901-0.793,2.752-1.252 M93.308,107.046c-0.19-0.069-0.41-0.139-0.654-0.225c-0.4-0.144-0.883-0.317-1.436-0.524
			c-0.532-0.207-1.115-0.415-1.705-0.665c-0.297-0.118-0.6-0.239-0.907-0.381c-0.303-0.127-0.619-0.256-0.927-0.407
			c-0.307-0.139-0.632-0.269-0.939-0.43c-0.313-0.151-0.644-0.286-0.96-0.454c-0.645-0.312-1.285-0.644-1.946-0.977
			c-0.659-0.338-1.32-0.684-1.983-1.042c-0.672-0.361-1.343-0.725-2.006-1.083c-0.671-0.358-1.324-0.727-2.004-1.072
			c-1.312-0.717-2.613-1.394-3.803-1.979c-0.887-0.437-1.718-0.83-2.411-1.137h-2.067c-0.688,0.307-1.516,0.693-2.405,1.137
			c-1.19,0.585-2.488,1.262-3.806,1.979c-0.676,0.346-1.33,0.714-2,1.072c-0.661,0.358-1.335,0.722-2.006,1.083
			c-0.659,0.358-1.324,0.704-1.985,1.042c-0.659,0.333-1.303,0.665-1.944,0.977c-0.312,0.168-0.648,0.303-0.956,0.454
			c-0.312,0.161-0.637,0.291-0.944,0.43c-0.308,0.151-0.627,0.28-0.929,0.407c-0.3,0.142-0.602,0.263-0.904,0.381
			c-0.588,0.25-1.169,0.458-1.7,0.665c-0.554,0.2-1.04,0.381-1.442,0.524c-0.298,0.103-0.554,0.19-0.761,0.264
			c-4.503-6.02-7.822-13.795-9.393-22.547c2.99,2.163,6.984,3.79,11.501,4.453c9.547,1.41,18.088-1.955,20.109-7.641
			c2.024,5.686,10.565,9.051,20.115,7.641c5.165-0.759,9.647-2.77,12.724-5.416C101.338,92.698,97.963,100.814,93.308,107.046
			L93.308,107.046z M86.604,65.252c-8.327,1.225-14.877,5.714-16.612,10.833c-1.732-5.119-8.282-9.608-16.609-10.833
			c-6.193-0.914-11.963,0.181-15.806,2.615c0.139-1.72,0.342-3.405,0.602-5.063h64.698c0.3,1.907,0.512,3.858,0.646,5.843
			C99.741,65.677,93.429,64.248,86.604,65.252L86.604,65.252z M86.604,65.252"/>
	</g>
</g>
</svg>
