<?xml version="1.0" encoding="utf-8"?>
<!-- Generator: Adobe Illustrator 15.1.0, SVG Export Plug-In . SVG Version: 6.00 Build 0)  -->
<!DOCTYPE svg PUBLIC "-//W3C//DTD SVG 1.1//EN" "http://www.w3.org/Graphics/SVG/1.1/DTD/svg11.dtd">
<svg version="1.1" id="Layer_1" xmlns="http://www.w3.org/2000/svg" xmlns:xlink="http://www.w3.org/1999/xlink" x="0px" y="0px"
	 width="86.365px" height="103px" viewBox="0 0 86.365 103" enable-background="new 0 0 86.365 103" xml:space="preserve">
<g>
	<g>
		<path fill="#6F6F6E" d="M16.992,55.169C18.336,73.157,29.488,87.235,43,87.235c14.418,0,26.146-16.023,26.146-35.721
			c0-2.449-0.182-4.844-0.527-7.156h4.355v-9.772h-4.832c-0.002-11.917-11.236-21.581-25.092-21.581
			c-13.859,0-25.094,9.664-25.094,21.582h-4.832v9.773h4.258c-0.348,2.312-0.527,4.703-0.527,7.156 M58.922,75.278l-0.328,0.426
			c-4.115,5.312-9.59,8.559-15.594,8.559l0,0c-6.016,0-11.504-3.262-15.625-8.594l-0.272-0.363
			c-5.197-6.941-5.723-9.918-6.759-15.676c-1.438-7.156-0.37-11.732-0.37-11.732c0.097-1.201,0.237-2.379,0.422-3.537h45.213
			c0.211,1.332,0.57,5.467,0.453,4.082c0.477,5.599-0.483,10.435-0.483,10.435C64.535,65.251,62.176,70.923,58.922,75.278
			L58.922,75.278"/>
	</g>
</g>
<path fill="#6F6F6E" d="M65.725,48.192"/>
<g>
	<g>
		<path fill="#6F6F6E" d="M68.117,47.338c-3.438-0.185-9.784-3.019-16.68-2.002c-6.896,1.021-8.945,6.375-9.199,8.308
			c0.058,0.643,0.584,1.61,0.938,2.428c0.528-1.371,1.468-2.226,2.491-3.232c4.335-3.848,10.126-3.464,11.119-3.473
			c0.525,0.007,1.463,0.076,2.554,0.205c1.103,0.147,2.3,0.271,3.519,0.252c2.395,0.022,4.535-0.209,4.533-0.211
			c0.002,0.002-2.097,0.492-4.513,0.74c-1.188,0.149-2.522,0.153-3.604,0.104c-1.092-0.029-2.002-0.033-2.508-0.037
			c-0.504-0.002-2.076-0.047-4.043,0.406c-0.996,0.232-2.025,0.58-3.182,1.088c-1.042,0.404-2.014,1.102-2.822,1.965
			c-1.416,1.506-2.372,3.368-3.011,4.913c0.305,0.819,1.113,1.749,3,2.521C63.902,65.506,73.48,45.937,73.48,45.937
			S71.555,47.522,68.117,47.338L68.117,47.338z"/>
	</g>
</g>
<g>
	<g>
		<path fill="#6F6F6E" d="M18.224,47.282c-3.438,0.184-5.364-1.404-5.364-1.404s9.577,19.57,26.769,15.376
			c1.888-0.771,2.697-1.699,3-2.521c-0.638-1.545-1.594-3.406-3.01-4.912c-0.81-0.863-1.781-1.562-2.823-1.965
			c-1.153-0.509-2.185-0.854-3.181-1.088c-1.966-0.453-3.539-0.408-4.042-0.406c-0.506,0.004-1.417,0.008-2.509,0.037
			c-1.08,0.051-2.414,0.047-3.604-0.104c-2.416-0.247-4.514-0.735-4.511-0.739c-0.003,0.004,2.139,0.234,4.533,0.213
			c1.219,0.019,2.415-0.104,3.517-0.254c1.091-0.129,2.028-0.197,2.554-0.203c0.993,0.008,6.784-0.375,11.119,3.471
			c1.024,1.01,1.839,2.14,2.491,3.232c0.05-1.156,0.227-1.465,0.939-2.429c-0.254-1.933-2.306-7.287-9.2-8.306
			C28.008,44.265,21.66,47.099,18.224,47.282L18.224,47.282z"/>
	</g>
</g>
<path fill="#6F6F6E" d="M58.594,75.704"/>
<g>
	<g>
		<g>
			<path fill="#6F6F6E" d="M21.485,70.476c0,0,11.498,9.881,21.336,2.479c0.995-1.012,1.258-1.827,1.226-2.436
				c-0.832-0.812-1.955-1.74-3.272-2.313c-0.754-0.329-1.567-0.509-2.344-0.479c-0.878-0.008-1.632,0.055-2.333,0.178
				c-1.382,0.25-2.375,0.713-2.695,0.852c-0.322,0.143-0.904,0.396-1.594,0.713c-0.677,0.329-1.53,0.693-2.333,0.923
				c-1.612,0.507-3.088,0.771-3.086,0.769C26.388,71.153,24.302,71.616,21.485,70.476"/>
		</g>
	</g>
	<g>
		<g>
			<path fill="#6F6F6E" d="M64.613,70.476c-2.817,1.141-4.903,0.68-4.903,0.68c0.002,0.002-1.474-0.262-3.086-0.769
				c-0.804-0.229-1.657-0.594-2.333-0.923c-0.689-0.316-1.271-0.57-1.594-0.713c-0.321-0.139-1.314-0.602-2.695-0.852
				c-0.702-0.123-1.455-0.186-2.333-0.179c-0.776-0.026-1.59,0.151-2.344,0.479c-1.319,0.574-2.441,1.503-3.273,2.314
				c-0.031,0.606,0.231,1.424,1.227,2.436C53.115,80.356,64.613,70.476,64.613,70.476"/>
		</g>
	</g>
</g>
<path fill="#6F6F6E" d="M43.713,58.791c0,0-0.298-0.479-0.664-1.742c0,0-0.132,0.933-0.421,1.687
	c-0.289,0.756-1.319-1.041-1.319-1.041l1.483-3.736l3.031,3.328L43.713,58.791z"/>
<path fill="#6F6F6E" d="M68.709,49.005l-12.5-0.812l-9.167,1.312l-3.993,3.506l-6.59-4.089c0,0-8.083-1.25-8.333-1.083
	s-9.417,0.833-9.417,0.833l0.5,3.167c0,0,7.417,0.167,7.75,0.417s13.75,6.665,13.75,6.665l2.34-3.09l5.743,2.091
	c0,0,18.25-6.251,18.5-6.334S68.709,49.005,68.709,49.005z"/>
</svg>
