<?xml version="1.0" encoding="utf-8"?>
<!-- Generator: Adobe Illustrator 15.1.0, SVG Export Plug-In . SVG Version: 6.00 Build 0)  -->
<!DOCTYPE svg PUBLIC "-//W3C//DTD SVG 1.1//EN" "http://www.w3.org/Graphics/SVG/1.1/DTD/svg11.dtd">
<svg version="1.1" id="Layer_1" xmlns="http://www.w3.org/2000/svg" xmlns:xlink="http://www.w3.org/1999/xlink" x="0px" y="0px"
	 width="33px" height="41px" viewBox="0 0 33 41" enable-background="new 0 0 33 41" xml:space="preserve">
<g>
	<g>
		<path fill-rule="evenodd" clip-rule="evenodd" fill="#E7B142" d="M18.932,22.685c0.352-0.587,0.867-0.888,1.551-0.896
			s1.027-0.354,1.039-1.039c0.008-0.683,0.305-1.195,0.891-1.547c0.59-0.347,0.715-0.82,0.383-1.418
			c-0.336-0.593-0.336-1.191,0-1.785c0.332-0.597,0.207-1.066-0.383-1.418c-0.586-0.351-0.883-0.863-0.891-1.551
			c-0.012-0.679-0.355-1.027-1.039-1.035c-0.684-0.011-1.199-0.308-1.551-0.894c-0.348-0.59-0.82-0.715-1.414-0.379
			c-0.598,0.332-1.192,0.332-1.789,0c-0.594-0.336-1.067-0.211-1.418,0.379c-0.348,0.586-0.864,0.883-1.547,0.894
			c-0.68,0.008-1.028,0.356-1.039,1.035c-0.008,0.688-0.305,1.2-0.891,1.551c-0.59,0.352-0.719,0.821-0.383,1.418
			c0.336,0.594,0.336,1.192,0,1.785c-0.336,0.598-0.207,1.071,0.383,1.418c0.586,0.352,0.883,0.864,0.891,1.547
			c0.011,0.685,0.359,1.031,1.039,1.039c0.683,0.008,1.199,0.309,1.55,0.896c0.348,0.586,0.821,0.715,1.415,0.379
			c0.597-0.328,1.191-0.328,1.789,0C18.111,23.399,18.584,23.271,18.932,22.685L18.932,22.685z M16.623,20.629
			c-2.062,0-3.738-1.672-3.738-3.738c0-2.063,1.676-3.738,3.738-3.738c2.066,0,3.738,1.675,3.738,3.738
			C20.361,18.957,18.689,20.629,16.623,20.629L16.623,20.629z M16.623,20.629"/>
	</g>
	<path fill-rule="evenodd" clip-rule="evenodd" fill="#E7B142" d="M12.705,22.34c-0.719,0-0.816-0.336-0.816-0.336l-2.805,5.517
		l2.25-0.254l1.242,1.87c0,0,2.594-5.405,2.594-5.371C13.826,23.731,14.361,22.375,12.705,22.34L12.705,22.34z M12.705,22.34"/>
	<path fill-rule="evenodd" clip-rule="evenodd" fill="#E7B142" d="M21.318,22.219c-2.047,0.216-1.633,0.724-2.102,1.121
		c-0.539,0.574-1.211,0.461-1.211,0.461l3.164,5.445l0.777-2.015l2.215,0.289L21.318,22.219z M21.318,22.219"/>
	<path fill-rule="evenodd" clip-rule="evenodd" fill="#E7B142" d="M17.404,16.067l-0.781-1.582l-0.781,1.582l-1.754,0.257
		l1.266,1.235l-0.297,1.742l1.566-0.82l1.566,0.82l-0.297-1.742l1.266-1.235L17.404,16.067z M17.404,16.067"/>
</g>
</svg>
