<?xml version="1.0" encoding="utf-8"?>
<!-- Generator: Adobe Illustrator 15.1.0, SVG Export Plug-In . SVG Version: 6.00 Build 0)  -->
<!DOCTYPE svg PUBLIC "-//W3C//DTD SVG 1.1//EN" "http://www.w3.org/Graphics/SVG/1.1/DTD/svg11.dtd">
<svg version="1.1" id="Layer_1" xmlns="http://www.w3.org/2000/svg" xmlns:xlink="http://www.w3.org/1999/xlink" x="0px" y="0px"
	 width="141.73px" height="141.73px" viewBox="0 0 141.73 141.73" enable-background="new 0 0 141.73 141.73" xml:space="preserve">
<g>
	<g>
		<path d="M72.01,74.949c-11.687,0-21.142-11.345-21.142-25.324c0-13.983,9.455-24.351,21.142-24.351
			c11.669,0,21.15,10.368,21.15,24.351C93.16,63.604,83.679,74.949,72.01,74.949L72.01,74.949z M21.479,116.129
			c0,0-5.024,0.333-7.23-2.711c-1.18-1.639-0.36-4.97,0.459-6.824c0,0,0.279-1.585,1.999-4.557
			c1.729-2.989,9.778-13.002,24.13-20.079c5.258-2.593,9.922-2.827,12.894-1.399c1.837,0.878,3.89,3.435,5.402,4.785
			c2.089,1.873,5.772,3.998,11.777,4.115h3.71c5.996-0.117,9.679-2.242,11.759-4.115c1.513-1.351,3.529-3.984,5.33-4.894
			c2.729-1.364,7.6-1.513,12.3,1.697c8.428,5.744,19.998,18.287,21.105,20.105c1.099,1.819,2.053,4.467,2.053,4.467
			c0.847,1.846,1.711,5.168,0.54,6.824c-2.062,2.972-6.699,2.585-6.699,2.585H21.479z M21.479,116.129"/>
	</g>
</g>
</svg>
