<?xml version="1.0" encoding="utf-8"?>
<!-- Generator: Adobe Illustrator 15.1.0, SVG Export Plug-In . SVG Version: 6.00 Build 0)  -->
<!DOCTYPE svg PUBLIC "-//W3C//DTD SVG 1.1//EN" "http://www.w3.org/Graphics/SVG/1.1/DTD/svg11.dtd">
<svg version="1.1" id="Layer_1" xmlns="http://www.w3.org/2000/svg" xmlns:xlink="http://www.w3.org/1999/xlink" x="0px" y="0px"
	 width="141.73px" height="141.73px" viewBox="0 0 141.73 141.73" enable-background="new 0 0 141.73 141.73" xml:space="preserve">
<g>
	<path d="M70.48,108.322c-6.123,0-11.09,4.966-11.09,11.101s4.967,11.101,11.09,11.101c6.123,0,11.089-4.966,11.089-11.101
		S76.603,108.322,70.48,108.322z"/>
	<path d="M61.307,92.266h0.031c0.322,4.776,4.284,8.55,9.142,8.55c4.782,0,8.711-3.654,9.141-8.323h0.032l6.338-62.046
		c0.215-1.04,0.329-2.117,0.329-3.221c0-8.748-7.087-15.84-15.84-15.84c-8.743,0-15.83,7.092-15.83,15.84
		c0,1.105,0.115,2.184,0.33,3.225L61.307,92.266z"/>
</g>
</svg>
