<?xml version="1.0" encoding="utf-8"?>
<!-- Generator: Adobe Illustrator 15.1.0, SVG Export Plug-In . SVG Version: 6.00 Build 0)  -->
<!DOCTYPE svg PUBLIC "-//W3C//DTD SVG 1.1//EN" "http://www.w3.org/Graphics/SVG/1.1/DTD/svg11.dtd">
<svg version="1.1" id="Layer_1" xmlns="http://www.w3.org/2000/svg" xmlns:xlink="http://www.w3.org/1999/xlink" x="0px" y="0px"
	 width="27px" height="33px" viewBox="0 0 27 33" enable-background="new 0 0 27 33" xml:space="preserve">
<g>
	<g>
		<path fill="#99BD47" d="M18.93,15.73c-0.137,0.297-0.426,0.469-0.729,0.469c-0.109,0-0.224-0.019-0.332-0.07L15.23,14.93
			c-0.195-0.09-0.345-0.25-0.418-0.45l-0.441-1.164l-0.57,2.805l1.348,2.146l0.492,0.654c0.043,0.057,0.078,0.113,0.103,0.182
			l1.603,4c0.163,0.414-0.035,0.877-0.445,1.043c-0.099,0.039-0.199,0.054-0.297,0.054c-0.32,0-0.617-0.188-0.746-0.505
			l-1.492-3.729l-2.804-2.805c0,0-0.797-0.64-0.559-1.762c0.16-0.476,0.48-2,0.719-3.199c0,0,0.019-0.117,0.054-0.293L9.949,12.82
			l-1.484,2.223c-0.153,0.23-0.406,0.355-0.664,0.355c-0.153,0-0.309-0.043-0.446-0.132c-0.367-0.247-0.464-0.743-0.222-1.11
			l1.601-2.398c0.078-0.117,0.184-0.211,0.309-0.274l3.199-1.601c0.11-0.055,0.227-0.074,0.34-0.078c0.004,0,0.012-0.004,0.02-0.004
			h1.597l0.004,0.004c0.32,0,0.625,0.195,0.746,0.511l1.246,3.293l2.336,1.063C18.934,14.855,19.109,15.328,18.93,15.73L18.93,15.73
			z M14.602,9c1.103,0,2-0.895,2-2s-0.897-2-2-2c-1.104,0-2,0.895-2,2S13.496,9,14.602,9L14.602,9z M10.762,17.32l-0.532,2.574
			l-2.269,3.026c-0.266,0.353-0.195,0.853,0.16,1.117c0.145,0.108,0.313,0.16,0.477,0.16c0.246,0,0.484-0.109,0.64-0.32l2.328-3.103
			c0.114-0.108,0.2-0.241,0.235-0.418L12.359,19l-1.281-1.281C11,17.643,10.84,17.48,10.762,17.32L10.762,17.32z"/>
	</g>
</g>
</svg>
